<svg width="50" height="50" viewBox="0 0 50 50" fill="none" xmlns="http://www.w3.org/2000/svg">
<g clip-path="url(#clip0_1_224)">
<path fill-rule="evenodd" clip-rule="evenodd" d="M45.3906 14.6371L43.7566 16.2735C40.2162 13.1831 35.6766 11.4547 30.9566 11.4547C27.7787 11.4547 24.6026 12.2729 21.8792 13.7269L28.7779 6.81826C29.3226 7.18133 29.9575 7.36372 30.5941 7.36372C31.5013 7.36372 32.4102 7.00065 33.1353 6.2728C34.5872 4.81881 34.5872 2.54492 33.1353 1.09092C32.4085 0.363072 31.5013 0 30.5941 0C29.6868 0 28.7779 0.363072 28.0528 1.09092C26.8732 2.36423 26.6911 4.1813 27.5081 5.54495L18.7932 14.2723L17.1592 12.6359L12.7115 17.09L14.3455 18.7264L5.44852 27.6361C4.90384 27.273 4.26894 27.0907 3.63235 27.0907C2.72511 27.0907 1.81618 27.4537 1.09107 28.1816C-0.360842 29.6356 -0.360842 31.9095 1.09107 33.3635C1.81788 33.9993 2.72511 34.364 3.63235 34.364C4.53958 34.364 5.44852 34.001 6.17363 33.2731C7.3532 32.0918 7.53533 30.2731 6.71831 28.8191L13.617 21.9105C9.98639 28.9111 10.8034 37.6385 16.1583 43.8193L14.5243 45.546L19.0638 50L23.5115 45.546L19.0638 41.0919L17.52 42.638C12.2553 36.4555 11.983 27.5475 16.4306 21.0019L17.1575 21.7298L21.697 17.2758L20.88 16.5479C23.7855 14.4564 27.326 13.3655 30.9566 13.3655C35.2238 13.3655 39.217 14.9115 42.4851 17.6388L40.8511 19.1849L45.3906 23.6389L49.8383 19.1849L45.3906 14.6388V14.6371ZM20.9702 45.5459L19.0639 47.455L17.1575 45.5459L19.0639 43.6368L20.9702 45.5459V45.5459ZM29.3226 2.45474C29.6851 2.09167 30.1396 1.90928 30.5941 1.90928C31.0485 1.90928 31.5013 2.09167 31.8656 2.45474C32.5924 3.18259 32.5924 4.27351 31.8656 4.99966C31.503 5.36273 31.0485 5.54512 30.5941 5.54512C30.1396 5.54512 29.6868 5.36273 29.3226 4.99966C28.5958 4.36385 28.5958 3.18089 29.3226 2.45474V2.45474ZM4.90211 31.9998C4.53956 32.3628 4.08509 32.5452 3.63062 32.5452C3.17616 32.5452 2.72339 32.3628 2.35913 31.9998C1.99658 31.727 1.81445 31.2719 1.81445 30.7265C1.81445 30.2713 1.99658 29.8179 2.35913 29.4531C2.72169 29.0884 3.17616 28.9077 3.63062 28.9077C4.08509 28.9077 4.53786 29.0901 4.90211 29.4531C5.62892 30.181 5.62892 31.3623 4.90211 31.9981V31.9998ZM17.0673 19.1815L15.1609 17.2724L17.0673 15.3633L18.9737 17.2724L17.0673 19.1815V19.1815ZM45.3906 21.0905L43.4843 19.1814L45.3906 17.2723L47.297 19.1814L45.3906 21.0905V21.0905Z" fill="#333333"/>
</g>
<defs>
<clipPath id="clip0_1_224">
<rect width="50" height="50" fill="white"/>
</clipPath>
</defs>
</svg>
